<?xml version="1.0" encoding="UTF-8" standalone="no"?>
<svg
   xmlns:dc="http://purl.org/dc/elements/1.1/"
   xmlns:cc="http://creativecommons.org/ns#"
   xmlns:rdf="http://www.w3.org/1999/02/22-rdf-syntax-ns#"
   xmlns:svg="http://www.w3.org/2000/svg"
   xmlns="http://www.w3.org/2000/svg"
   id="svg21"
   xml:space="preserve"
   viewBox="0 0 1024 768"
   y="0px"
   x="0px"
   version="1.1"><metadata
     id="metadata27"><rdf:RDF><cc:Work
         rdf:about=""><dc:format>image/svg+xml</dc:format><dc:type
           rdf:resource="http://purl.org/dc/dcmitype/StillImage" /></cc:Work></rdf:RDF></metadata><defs
     id="defs25" /><g
     transform="translate(-0.04312,-0.26813)"
     id="logo-group"><path
       stroke-miterlimit="2"
       d="m 263.46,436.65 c -1.4643,2.3795 -4.1642,3.9354 -7.1843,3.9354 -4.7133,0 -8.5114,-3.7981 -8.5114,-8.5114 0,-4.6675 3.7981,-8.5114 8.5114,-8.5114 3.0202,0 5.72,1.6016 7.1843,3.9811 l 6.5894,-3.2032 c -2.7456,-4.8048 -7.8707,-8.008 -13.774,-8.008 -8.7402,0 -15.787,7.047 -15.787,15.787 0,8.7402 7.047,15.787 15.787,15.787 5.903,0 11.074,-3.249 13.774,-8.0538 z"
       style="font-variant-ligatures:none;fill:#24823d;stroke:#24823d;stroke-width:0.35749999;stroke-miterlimit:2"
       id="path31168" /><path
       stroke-miterlimit="2"
       d="m 300.8,416.83 v 30.522 h 6.4522 V 416.83 Z"
       style="font-variant-ligatures:none;fill:#24823d;stroke:#24823d;stroke-width:0.35749999;stroke-miterlimit:2"
       id="path31170" /><path
       stroke-miterlimit="2"
       d="m 349.4,424.7 c -6.7725,0 -11.44,5.2166 -11.44,11.623 0,7.0928 5.0794,11.623 11.806,11.623 3.432,0 7.0013,-0.9152 9.5638,-3.5235 l -2.9744,-4.3014 -0.54912,0.54912 c -1.327,1.327 -3.7981,2.0134 -5.4454,2.0134 -2.8371,0 -4.9421,-1.5101 -5.5827,-3.7981 h 15.65 v -1.9219 c 0.0458,-7.3216 -4.4387,-12.264 -11.028,-12.264 z m 0,5.3082 c 2.9286,0 4.6218,2.105 4.8048,4.2099 h -9.6096 c 0.36608,-2.288 2.0134,-4.2099 4.8048,-4.2099 z"
       style="font-variant-ligatures:none;fill:#24823d;stroke:#24823d;stroke-width:0.35749999;stroke-miterlimit:2"
       id="path31172" /><path
       stroke-miterlimit="2"
       d="m 402.01,424.7 c -3.4778,0 -7.3674,1.1898 -10.159,3.9354 l 2.5626,4.4845 0.59488,-0.54912 c 1.7389,-1.6016 3.7523,-2.4253 5.9946,-2.4253 2.5626,0 4.2099,1.1898 4.2099,3.0659 v 2.288 c -1.5101,-1.2813 -3.7981,-2.0134 -6.3149,-2.0134 -3.5235,0 -7.6877,1.9677 -7.6877,7.1386 0,4.9421 4.1642,7.3216 7.6877,7.3216 2.471,0 4.759,-0.82368 6.3149,-2.1965 v 1.6474 h 6.4979 v -14.277 c -0.0458,-6.4064 -4.6675,-8.4198 -9.7011,-8.4198 z m -0.82368,13.362 c 1.6931,0 3.2032,0.54912 4.0269,1.4643 v 2.288 c -0.82368,0.96096 -2.288,1.5101 -4.0269,1.5101 -1.7389,0 -3.5235,-0.77792 -3.5235,-2.6083 0,-1.9677 1.8762,-2.6541 3.5235,-2.6541 z"
       style="font-variant-ligatures:none;fill:#24823d;stroke:#24823d;stroke-width:0.35749999;stroke-miterlimit:2"
       id="path31174" /><path
       stroke-miterlimit="2"
       d="m 456.04,424.7 c -3.1117,0 -5.5827,1.327 -7.0928,2.7456 v -2.1965 h -6.4522 v 22.102 h 6.4522 v -14.643 c 0.54912,-0.6864 1.9677,-2.1507 4.393,-2.1507 2.4253,0 3.432,1.0067 3.432,3.4778 v 13.362 h 6.4522 v -15.65 c 0,-4.3014 -2.3338,-7.047 -7.1843,-7.047 z"
       style="font-variant-ligatures:none;fill:#24823d;stroke:#24823d;stroke-width:0.35749999;stroke-miterlimit:2"
       id="path31176" /><path
       stroke-miterlimit="2"
       d="m 505.66,416.88 v 30.522 h 21.599 v -6.4522 H 512.89 v -5.4454 h 14.003 v -6.4522 H 512.89 v -5.72 h 14.369 V 416.88 Z"
       style="font-variant-ligatures:none;fill:#24823d;stroke:#24823d;stroke-width:0.35749999;stroke-miterlimit:2"
       id="path31178" /><path
       stroke-miterlimit="2"
       d="m 571.56,424.7 c -3.1117,0 -5.5827,1.327 -7.0928,2.7456 v -2.1965 h -6.4522 v 22.102 h 6.4522 v -14.643 c 0.54912,-0.6864 1.9677,-2.1507 4.393,-2.1507 2.4253,0 3.432,1.0067 3.432,3.4778 v 13.362 h 6.4522 v -15.65 c 0,-4.3014 -2.3338,-7.047 -7.1843,-7.047 z"
       style="font-variant-ligatures:none;fill:#24823d;stroke:#24823d;stroke-width:0.35749999;stroke-miterlimit:2"
       id="path31180" /><path
       stroke-miterlimit="2"
       d="m 620.92,424.7 c -6.7725,0 -11.44,5.2166 -11.44,11.623 0,7.0928 5.0794,11.623 11.806,11.623 3.432,0 7.0013,-0.9152 9.5638,-3.5235 l -2.9744,-4.3014 -0.54912,0.54912 c -1.327,1.327 -3.7981,2.0134 -5.4454,2.0134 -2.8371,0 -4.9421,-1.5101 -5.5827,-3.7981 h 15.65 v -1.9219 c 0.0458,-7.3216 -4.4387,-12.264 -11.028,-12.264 z m 0,5.3082 c 2.9286,0 4.6218,2.105 4.8048,4.2099 h -9.6096 c 0.36608,-2.288 2.0134,-4.2099 4.8048,-4.2099 z"
       style="font-variant-ligatures:none;fill:#24823d;stroke:#24823d;stroke-width:0.35749999;stroke-miterlimit:2"
       id="path31182" /><path
       stroke-miterlimit="2"
       d="m 669.18,427.54 v -2.288 h -6.4522 v 22.102 h 6.4522 v -14.369 c 0.86944,-1.0982 3.0659,-2.0592 4.8048,-2.0592 0.54912,0 1.0982,0 1.4643,0.0915 l 0.13728,0.0458 v -6.3606 c -2.4253,0 -4.8048,1.2355 -6.4064,2.8371 z"
       style="font-variant-ligatures:none;fill:#24823d;stroke:#24823d;stroke-width:0.35749999;stroke-miterlimit:2"
       id="path31184" /><path
       stroke-miterlimit="2"
       d="m 722.21,425.25 v 2.105 c -1.6931,-1.7389 -3.7981,-2.6541 -6.1776,-2.6541 -5.5827,0 -9.7011,4.0269 -9.7011,11.257 0,7.3674 4.2099,11.257 9.7011,11.257 2.3795,0 4.5302,-1.0067 6.1776,-2.6998 v 1.5101 c 0,4.4387 -3.7981,4.9421 -5.4454,4.9421 -2.7456,0 -4.8506,-0.82368 -6.4064,-2.5626 l -0.59488,-0.64064 -3.0202,4.8506 c 2.9744,2.9286 6.2234,3.7523 10.021,3.7523 5.4454,0 11.943,-2.105 11.943,-10.479 v -20.64 z m 0,14.094 c -0.9152,1.1898 -2.7456,2.0592 -4.3472,2.0592 -3.0202,0 -4.9421,-2.0592 -4.9421,-5.4454 0,-3.3405 1.9219,-5.3997 4.9421,-5.3997 1.6474,0 3.4778,0.86944 4.3472,2.0592 z"
       style="font-variant-ligatures:none;fill:#24823d;stroke:#24823d;stroke-width:0.35749999;stroke-miterlimit:2"
       id="path31186" /><path
       stroke-miterlimit="2"
       d="m 776.51,425.3 -5.0336,13.545 -5.0794,-13.545 h -6.9098 l 8.6029,21.599 -1.0525,2.4253 c -0.41184,0.86944 -1.144,1.2355 -2.471,1.2355 -0.50336,0 -1.1898,-0.13728 -1.5558,-0.32032 l -0.77792,-0.32032 -1.0067,5.9488 c 0.86944,0.36608 2.8371,0.50336 3.5235,0.50336 3.7981,-0.0915 6.7267,-1.1898 8.3741,-5.3539 l 10.388,-25.717 z m -8.4198,21.599 -0.36608,0.82368 z"
       style="font-variant-ligatures:none;fill:#24823d;stroke:#24823d;stroke-width:0.35749999;stroke-miterlimit:2"
       id="path31188" /><path
       stroke-miterlimit="2"
       d="m 243.95,312.82 h 65.016 v 12.96 l -39.96,46.872 h 40.608 v 15.876 h -67.068 v -12.852 l 39.96,-46.98 H 243.95 Z"
       style="font-variant-ligatures:none;fill:#4f5ccc;stroke-width:0;stroke-miterlimit:2"
       id="path31191" /><path
       stroke-miterlimit="2"
       d="m 321.46,312.82 h 59.724 v 15.768 h -39.96 v 14.148 h 36.072 v 15.66 l -36.072,0.108 v 14.256 h 41.04 v 15.768 H 321.46 Z"
       style="font-variant-ligatures:none;fill:#4f5ccc;stroke-width:0;stroke-miterlimit:2"
       id="path31193" /><path
       stroke-miterlimit="2"
       d="m 441.42,388.53 -11.016,-20.952 h -14.688 v 20.952 h -19.764 v -75.708 h 34.02 q 15.012,0 23.22,7.02 8.316,6.912 8.316,19.548 0,8.532 -3.456,14.796 -3.456,6.156 -10.044,9.612 l 15.768,24.732 z m -25.704,-36.72 h 14.364 q 6.048,0 9.288,-3.024 3.348,-3.024 3.348,-8.748 0,-5.508 -3.348,-8.424 -3.24,-3.024 -9.288,-3.024 h -14.364 z"
       style="font-variant-ligatures:none;fill:#4f5ccc;stroke-width:0;stroke-miterlimit:2"
       id="path31195" /><path
       stroke-miterlimit="2"
       d="m 614.08,312.82 h 18.36 v 75.708 h -17.28 l -34.344,-45.252 v 45.252 H 562.348 V 312.82 h 17.388 l 34.452,45.576 z"
       style="font-variant-ligatures:none;fill:#4f5ccc;stroke-width:0;stroke-miterlimit:2"
       id="path31199" /><path
       stroke-miterlimit="2"
       d="m 648.64,312.82 h 59.724 v 15.768 h -39.96 v 14.148 h 36.072 v 15.66 l -36.072,0.108 v 14.256 h 41.04 v 15.768 H 648.64 Z"
       style="font-variant-ligatures:none;fill:#4f5ccc;stroke-width:0;stroke-miterlimit:2"
       id="path31201" /><path
       stroke-miterlimit="2"
       d="m 716.54,312.82 h 64.908 v 16.308 h -22.68 v 59.4 h -19.764 v -59.4 H 716.54 Z"
       style="font-variant-ligatures:none;fill:#4f5ccc;stroke-width:0;stroke-miterlimit:2"
       id="path31203" /><path
       style="fill:#24823d;stroke-width:0.44999999"
       d="m 510.2,311.99 c -0.6948,0.002 -1.4492,0.0125 -1.6763,0.023 -0.22693,0.0108 -0.60422,0.032 -0.83817,0.0475 -0.23394,0.0155 -0.66731,0.0503 -0.96327,0.0773 -0.29574,0.0273 -0.74061,0.0723 -0.98829,0.10033 -0.2477,0.0283 -0.68679,0.0846 -0.97578,0.12535 -0.28898,0.041 -0.76185,0.11384 -1.0508,0.16213 -0.28898,0.0483 -0.7844,0.13886 -1.1009,0.20116 -0.3165,0.0623 -0.79965,0.16363 -1.0733,0.22493 -0.27397,0.0616 -0.71856,0.16738 -0.98829,0.23518 -0.26972,0.0678 -0.71559,0.18615 -0.99081,0.26272 -0.27522,0.0768 -0.75362,0.21742 -1.0634,0.31274 -0.3095,0.0951 -0.79938,0.25346 -1.0884,0.35154 -0.28898,0.0983 -0.8069,0.28397 -1.1509,0.41257 -0.34403,0.12886 -0.85617,0.32927 -1.1384,0.44536 -0.28223,0.11634 -0.71559,0.30124 -0.96327,0.41108 -0.2477,0.10984 -0.62402,0.28098 -0.83642,0.3803 -0.21241,0.0993 -0.612,0.29349 -0.88821,0.43185 -0.27621,0.13811 -0.71784,0.36729 -0.98127,0.50918 -0.2637,0.14186 -0.61272,0.33351 -0.77562,0.42609 -0.16312,0.0923 -0.47664,0.27496 -0.69682,0.40582 -0.22018,0.1311 -0.58046,0.35053 -0.80064,0.48789 -0.22018,0.13711 -0.65354,0.41859 -0.96327,0.62501 -0.3095,0.20666 -0.75987,0.51664 -1.0008,0.68881 -0.24069,0.17239 -0.59549,0.43185 -0.78813,0.57645 -0.19265,0.14486 -0.51341,0.39256 -0.71307,0.55071 -0.19941,0.15788 -0.55971,0.45086 -0.80064,0.65079 -0.24069,0.20016 -0.57848,0.4874 -0.7506,0.63828 -0.17189,0.15112 -0.44786,0.39882 -0.61299,0.55094 -0.16513,0.15187 -0.50742,0.4734 -0.76059,0.71455 -0.25345,0.24119 -0.70308,0.69156 -0.99932,1.0013 -0.29623,0.30949 -0.73282,0.77989 -0.97029,1.0448 -0.23719,0.26521 -0.59922,0.6818 -0.80388,0.92574 -0.20491,0.2442 -0.52492,0.63527 -0.71109,0.86918 -0.18614,0.23393 -0.53541,0.6898 -0.77589,1.0133 -0.24069,0.32325 -0.58369,0.79614 -0.76234,1.0508 -0.17889,0.25445 -0.44886,0.64854 -0.60048,0.8757 -0.15162,0.22693 -0.4336,0.66604 -0.62699,0.97578 -0.1934,0.30949 -0.49189,0.80541 -0.66352,1.1016 -0.17164,0.29624 -0.43034,0.75785 -0.57546,1.0258 -0.14486,0.26797 -0.40132,0.76284 -0.56997,1.1001 -0.16863,0.33701 -0.41283,0.84316 -0.54221,1.1244 -0.1296,0.28122 -0.33176,0.73535 -0.44885,1.0093 -0.11734,0.27396 -0.307,0.73633 -0.42184,1.0273 -0.11484,0.29123 -0.30425,0.79389 -0.42109,1.1174 -0.11684,0.3235 -0.29724,0.85243 -0.40107,1.1759 -0.10383,0.32351 -0.23369,0.73984 -0.28873,0.92574 -0.055,0.18589 -0.14486,0.50089 -0.19991,0.70056 -0.0548,0.1994 -0.16188,0.61047 -0.23769,0.91323 -0.0761,0.30274 -0.1829,0.75312 -0.23769,1.0008 -0.0548,0.24769 -0.14511,0.68103 -0.20041,0.96327 -0.0555,0.28197 -0.14011,0.74934 -0.18815,1.0383 -0.048,0.28898 -0.11559,0.72234 -0.14987,0.96327 -0.0345,0.24069 -0.0911,0.67981 -0.1256,0.97578 -0.0348,0.29573 -0.0803,0.7236 -0.10108,0.95076 -0.021,0.22693 -0.0548,0.65479 -0.0751,0.95076 -0.0203,0.29573 -0.05,0.8757 -0.0663,1.2885 -0.0183,0.46863 -0.0238,1.183 -0.0145,1.9015 0.008,0.63301 0.0268,1.3536 0.0413,1.6013 0.0145,0.24769 0.0435,0.67554 0.0645,0.95076 0.0208,0.27522 0.0605,0.72558 0.0878,1.0008 0.0275,0.27522 0.0836,0.76486 0.1246,1.0884 0.0413,0.32325 0.10858,0.80739 0.14987,1.0759 0.0413,0.26821 0.12635,0.76936 0.18915,1.1134 0.0628,0.34402 0.16488,0.86193 0.22668,1.1509 0.0618,0.28898 0.17264,0.7731 0.2462,1.0759 0.0733,0.30274 0.20291,0.80365 0.28773,1.1134 0.0848,0.30949 0.24869,0.86818 0.36404,1.2412 0.11559,0.37305 0.29023,0.90774 0.38831,1.1884 0.0981,0.28047 0.26296,0.73535 0.36654,1.0106 0.10383,0.27522 0.26021,0.6768 0.34753,0.89221 0.0876,0.21567 0.2542,0.612 0.37054,0.88097 0.11609,0.26896 0.29899,0.67806 0.40633,0.90922 0.10708,0.23093 0.32676,0.68454 0.48762,1.008 0.16112,0.32325 0.41032,0.80662 0.55395,1.0741 l 0.2612,0.48614 -0.23693,0.26446 c -0.13036,0.14536 -0.33452,0.39381 -0.45387,0.55219 -0.1196,0.15813 -0.28348,0.39457 -0.3643,0.52542 -0.0811,0.1306 -0.21242,0.36154 -0.29198,0.51291 -0.0796,0.15137 -0.19991,0.40457 -0.26771,0.56295 -0.0678,0.15813 -0.16889,0.42284 -0.22468,0.58797 -0.0555,0.16513 -0.13536,0.43535 -0.1769,0.60048 -0.0418,0.16513 -0.0988,0.42959 -0.1271,0.58797 -0.0283,0.15813 -0.0683,0.44536 -0.0886,0.63801 -0.0205,0.19265 -0.037,0.56421 -0.037,0.82566 2.5e-4,0.26146 0.0165,0.63851 0.036,0.83817 0.0198,0.19941 0.0596,0.49788 0.0886,0.66303 0.029,0.16513 0.0908,0.45212 0.13761,0.63801 0.0468,0.18565 0.14161,0.50342 0.21067,0.70583 0.0691,0.20266 0.19415,0.52344 0.27822,0.71307 0.0838,0.1899 0.33126,0.67203 0.54994,1.0718 0.21843,0.39982 0.40408,0.74462 0.41233,0.76586 0.0113,0.0293 -0.0533,0.0791 -0.25545,0.19765 -0.1899,0.11134 -0.32601,0.21442 -0.4581,0.34728 -0.1221,0.12285 -0.21993,0.25045 -0.27898,0.36429 -0.05,0.0963 -0.11559,0.25395 -0.14561,0.35028 -0.0313,0.10058 -0.0603,0.27747 -0.0683,0.41508 -0.0103,0.17514 -0.003,0.28999 0.0273,0.42534 0.0228,0.10184 0.0696,0.24595 0.10384,0.31976 0.0388,0.0838 0.13085,0.20266 0.24344,0.315 0.10208,0.10158 0.25571,0.22168 0.35203,0.27522 0.0941,0.0523 0.25746,0.12385 0.36279,0.15913 0.16513,0.0548 0.23744,0.0638 0.51719,0.065 0.28473,9e-4 0.34702,-0.007 0.5004,-0.0611 0.10033,-0.0356 0.68179,-0.35453 1.3596,-0.74583 0.65129,-0.37605 1.1872,-0.68004 1.1907,-0.67554 0.004,0.005 0.52344,0.91926 1.1552,2.0329 0.81166,1.4306 1.1834,2.0629 1.2683,2.1562 0.0658,0.0723 0.17214,0.16638 0.23644,0.20891 0.0643,0.0428 0.1889,0.0998 0.27697,0.12685 0.10833,0.0335 0.23018,0.0493 0.37655,0.0488 0.15687,-2.4e-4 0.2612,-0.016 0.3803,-0.0565 0.0901,-0.0308 0.22943,-0.0951 0.309,-0.14312 0.0798,-0.048 0.19966,-0.14661 0.26646,-0.21942 0.0666,-0.0726 0.15663,-0.20416 0.20016,-0.29248 0.048,-0.0978 0.0896,-0.23369 0.10584,-0.34678 0.0203,-0.14036 0.019,-0.22918 -0.005,-0.36279 -0.0173,-0.0973 -0.0683,-0.25346 -0.11335,-0.34703 -0.045,-0.0936 -0.57996,-1.0468 -1.1887,-2.1182 -0.60871,-1.0714 -1.0974,-1.9568 -1.0858,-1.9673 0.0115,-0.0108 1.2245,-0.72081 2.6951,-1.578 2.2796,-1.3286 2.6784,-1.5527 2.7022,-1.52 0.0155,0.021 0.53469,0.93226 1.1539,2.0246 l 1.1259,1.9863 0.17514,0.17714 c 0.11109,0.11234 0.22643,0.20116 0.3155,0.24294 0.0773,0.0363 0.1899,0.0773 0.2502,0.0913 0.0605,0.014 0.1779,0.0255 0.26096,0.026 0.0831,2.5e-4 0.21818,-0.0165 0.30024,-0.0375 0.0821,-0.0208 0.22243,-0.0743 0.31175,-0.11885 0.10083,-0.05 0.22443,-0.14261 0.32526,-0.24344 0.0951,-0.0951 0.19115,-0.22168 0.23119,-0.30475 0.0378,-0.0781 0.0813,-0.20091 0.0968,-0.27296 0.0155,-0.0718 0.0225,-0.22193 0.0158,-0.33327 -0.007,-0.11134 -0.0318,-0.25971 -0.0556,-0.32976 -0.0235,-0.0698 -0.56443,-1.0438 -1.2017,-2.1642 -0.96552,-1.6974 -1.1527,-2.0416 -1.1227,-2.0651 0.02,-0.0158 0.56218,-0.33077 1.205,-0.70007 l 1.1689,-0.6718 0.20316,-0.20241 c 0.16639,-0.16613 0.22393,-0.2452 0.31851,-0.43835 0.0743,-0.15238 0.12985,-0.311 0.15663,-0.44761 0.0293,-0.14937 0.0373,-0.27847 0.0275,-0.43785 -0.008,-0.12435 -0.038,-0.30199 -0.0671,-0.39482 -0.033,-0.10558 -0.0968,-0.22693 -0.17063,-0.32451 -0.0648,-0.0856 -0.1854,-0.21017 -0.26797,-0.27697 -0.0826,-0.0668 -0.22893,-0.15912 -0.32526,-0.20541 -0.0963,-0.0463 -0.24744,-0.10258 -0.33602,-0.12535 -0.0883,-0.0228 -0.23719,-0.0475 -0.33051,-0.0556 -0.0936,-0.008 -0.25771,0 -0.3648,0.0173 -0.10708,0.0173 -0.24869,0.0528 -0.31475,0.0788 -0.0661,0.026 -0.20116,0.10859 -0.30024,0.18365 -0.0991,0.0748 -0.1879,0.12835 -0.1974,0.11859 -0.01,-0.01 -0.16238,-0.28223 -0.33952,-0.60548 -0.17715,-0.3235 -0.3718,-0.66676 -0.43235,-0.76311 -0.0606,-0.0963 -0.17739,-0.27071 -0.25996,-0.38755 -0.0826,-0.1166 -0.24044,-0.32502 -0.35078,-0.46287 -0.11008,-0.13761 -0.35253,-0.40283 -0.53869,-0.58874 -0.18615,-0.18615 -0.4734,-0.44611 -0.63851,-0.57744 -0.16513,-0.13161 -0.39031,-0.30174 -0.5004,-0.3778 -0.11008,-0.0761 -0.31825,-0.20942 -0.46287,-0.29624 -0.14436,-0.0868 -0.45409,-0.2507 -0.68805,-0.36429 -0.23393,-0.11334 -0.57721,-0.26221 -0.76311,-0.33076 -0.18564,-0.0686 -0.48415,-0.16463 -0.66303,-0.21392 -0.17889,-0.049 -0.43785,-0.11134 -0.57546,-0.13862 -0.13761,-0.0273 -0.36829,-0.0668 -0.51291,-0.0876 -0.14436,-0.021 -0.44285,-0.051 -0.66303,-0.0666 -0.22593,-0.0162 -0.56394,-0.0215 -0.77562,-0.0125 -0.20641,0.009 -0.5274,0.033 -0.71307,0.0538 -0.18564,0.0207 -0.50589,0.0716 -0.71158,0.11259 -0.20542,0.041 -0.38681,0.0698 -0.40257,0.0638 -0.016,-0.006 -0.2482,-0.44836 -0.51615,-0.98303 -0.26821,-0.53442 -0.58397,-1.1857 -0.70232,-1.4472 -0.11809,-0.26146 -0.32125,-0.72882 -0.45162,-1.0383 -0.1301,-0.30975 -0.33902,-0.82917 -0.46413,-1.1547 -0.12484,-0.32551 -0.34077,-0.92772 -0.47988,-1.3386 -0.13886,-0.41083 -0.32601,-0.99454 -0.41583,-1.2973 -0.0898,-0.30274 -0.25195,-0.89946 -0.36003,-1.3261 -0.10809,-0.42659 -0.2482,-1.0216 -0.3115,-1.3221 -0.063,-0.30074 -0.15362,-0.76563 -0.20116,-1.0331 -0.0475,-0.26772 -0.11985,-0.71433 -0.16088,-0.9923 -0.0408,-0.27822 -0.0968,-0.6858 -0.1246,-0.90598 -0.0278,-0.22018 -0.0731,-0.6255 -0.10058,-0.90072 -0.0275,-0.27522 -0.0668,-0.72558 -0.0873,-1.0008 -0.0205,-0.27522 -0.0503,-0.77886 -0.0663,-1.1189 -0.0183,-0.39157 -0.0243,-1.1264 -0.016,-2.0016 0.008,-0.88695 0.0275,-1.585 0.0533,-1.9461 0.022,-0.30975 0.0573,-0.74885 0.0783,-0.97578 0.0213,-0.22719 0.061,-0.60998 0.0888,-0.85068 0.0278,-0.24095 0.0786,-0.64053 0.11285,-0.88821 0.0343,-0.2477 0.0961,-0.65304 0.13735,-0.90072 0.0413,-0.2477 0.12035,-0.6813 0.1754,-0.96327 0.0553,-0.28223 0.16213,-0.78588 0.23769,-1.1194 0.0756,-0.33376 0.21492,-0.89671 0.30975,-1.251 0.0948,-0.35453 0.23594,-0.85266 0.313,-1.1074 0.0773,-0.25471 0.21967,-0.6993 0.31625,-0.98829 0.0966,-0.28898 0.28322,-0.81266 0.41458,-1.1634 0.13161,-0.35103 0.33777,-0.87444 0.45837,-1.1634 0.12059,-0.28898 0.31825,-0.74511 0.43935,-1.0133 0.1211,-0.26847 0.38631,-0.82017 0.58946,-1.226 0.20291,-0.40608 0.50013,-0.97452 0.66051,-1.2635 0.16012,-0.28898 0.43735,-0.76937 0.616,-1.0676 0.17864,-0.29824 0.46737,-0.76234 0.64202,-1.0316 0.17439,-0.26921 0.43184,-0.65551 0.57195,-0.85891 0.14011,-0.20316 0.41858,-0.59472 0.61897,-0.86994 0.20041,-0.27522 0.54446,-0.73233 0.76437,-1.0158 0.21993,-0.28348 0.58199,-0.73382 0.80438,-1.0008 0.22267,-0.26697 0.57919,-0.68103 0.79263,-0.91998 0.21342,-0.2392 0.5872,-0.64454 0.83065,-0.90072 0.24345,-0.25646 0.64202,-0.66051 0.88596,-0.89798 0.24395,-0.23769 0.62577,-0.59796 0.84843,-0.80091 0.22268,-0.20291 0.53442,-0.48163 0.69255,-0.61974 0.15838,-0.13811 0.42284,-0.36404 0.58797,-0.50215 0.16513,-0.13786 0.46589,-0.38231 0.6683,-0.54293 0.20241,-0.16063 0.60772,-0.47061 0.90072,-0.68854 0.29298,-0.21818 0.7636,-0.55544 1.0456,-0.74934 0.28223,-0.19391 0.71559,-0.48137 0.96327,-0.63878 0.2477,-0.15762 0.57294,-0.36154 0.72284,-0.4531 0.14986,-0.0916 0.45387,-0.27147 0.67554,-0.40007 0.22168,-0.12835 0.60021,-0.34052 0.84091,-0.47138 0.24095,-0.13085 0.69129,-0.36454 1.0008,-0.51943 0.30975,-0.15487 0.79362,-0.38806 1.0759,-0.51818 0.28223,-0.13035 0.72531,-0.32651 0.98478,-0.43659 0.25946,-0.10984 0.6593,-0.27322 0.88821,-0.36279 0.22893,-0.0898 0.60224,-0.23094 0.82917,-0.31375 0.22718,-0.0828 0.64377,-0.22743 0.92574,-0.32101 0.28223,-0.0938 0.72131,-0.23394 0.97578,-0.3115 0.25471,-0.0776 0.75285,-0.21867 1.1074,-0.3135 0.35428,-0.0948 0.91723,-0.23444 1.251,-0.31 0.33351,-0.0756 0.84217,-0.18314 1.1304,-0.23919 0.28823,-0.056 0.75559,-0.14036 1.0383,-0.1874 0.28297,-0.047 0.67203,-0.10834 0.86467,-0.13611 0.19266,-0.0278 0.53042,-0.0733 0.7506,-0.10107 0.22018,-0.0278 0.6255,-0.0731 0.90072,-0.10058 0.27522,-0.0275 0.73683,-0.0668 1.0258,-0.0871 0.28898,-0.0203 0.83516,-0.0503 1.2135,-0.0663 0.42834,-0.0183 1.0986,-0.024 1.7764,-0.0148 0.59873,0.008 1.2798,0.0268 1.5137,0.0415 0.23394,0.0148 0.69557,0.0493 1.0258,0.0766 0.33027,0.0275 0.80316,0.0728 1.0508,0.10083 0.2477,0.028 0.61376,0.0736 0.81315,0.10083 0.19966,0.0275 0.60498,0.0896 0.90072,0.13787 0.29599,0.0485 0.70682,0.12059 0.91323,0.15987 0.20642,0.0395 0.59346,0.11835 0.86018,0.17514 0.26671,0.0568 0.77337,0.17489 1.1259,0.26246 0.35253,0.0876 0.89446,0.23243 1.204,0.32176 0.30975,0.0896 0.78264,0.23218 1.0508,0.31725 0.26847,0.0851 0.74133,0.2447 1.0508,0.35429 0.30975,0.10983 0.88371,0.32701 1.276,0.48289 0.39232,0.15588 0.97205,0.39832 1.2885,0.53843 0.3165,0.14036 0.8712,0.39957 1.2325,0.57622 0.36154,0.17639 0.86242,0.4306 1.1134,0.56471 0.25094,0.13411 0.65353,0.35578 0.89419,0.49288 0.24095,0.13686 0.5787,0.33377 0.7506,0.4376 0.17214,0.10358 0.46463,0.28398 0.65052,0.40082 0.1859,0.11684 0.5562,0.35829 0.82341,0.53645 0.26696,0.17839 0.66105,0.4491 0.8757,0.60147 0.21442,0.15237 0.56619,0.40957 0.78138,0.57118 0.21517,0.16163 0.56421,0.43185 0.77562,0.60021 0.21142,0.16839 0.51944,0.41909 0.68454,0.55719 0.16513,0.13786 0.43535,0.36879 0.60048,0.51318 0.16513,0.14436 0.47988,0.42634 0.69957,0.62676 0.21967,0.20016 0.68202,0.64553 1.0276,0.98955 0.34552,0.34403 0.77962,0.7889 0.96426,0.98856 0.1849,0.19966 0.51867,0.57173 0.74182,0.82665 0.22343,0.2552 0.57623,0.67181 0.78413,0.92574 0.20791,0.25395 0.57771,0.72608 0.82192,1.0496 0.24395,0.32326 0.55121,0.73985 0.68229,0.92574 0.13136,0.1859 0.38506,0.55719 0.56345,0.82566 0.17864,0.26821 0.42033,0.63977 0.53716,0.82566 0.11684,0.1859 0.32076,0.51944 0.45288,0.74133 0.13211,0.22218 0.37105,0.63878 0.53069,0.92574 0.15963,0.28723 0.47889,0.89924 0.70956,1.3604 0.23043,0.46112 0.53316,1.0972 0.67252,1.4136 0.13936,0.3165 0.32101,0.73859 0.40332,0.93825 0.0826,0.19941 0.22544,0.55971 0.31801,0.80064 0.0923,0.24069 0.2492,0.66852 0.34878,0.95076 0.0993,0.28197 0.25545,0.74934 0.34652,1.0383 0.0911,0.28898 0.22819,0.74484 0.3045,1.0133 0.0763,0.26821 0.21092,0.77486 0.29874,1.1259 0.0878,0.35078 0.21042,0.87444 0.27222,1.1634 0.0618,0.28898 0.14686,0.71132 0.18864,0.93825 0.042,0.22693 0.10459,0.58172 0.13887,0.78813 0.0343,0.20642 0.0961,0.60597 0.13736,0.88821 0.0413,0.28197 0.10333,0.76059 0.13786,1.0634 0.0348,0.30274 0.0856,0.82616 0.11309,1.1634 0.0273,0.33702 0.061,0.84942 0.0751,1.1384 0.0138,0.28898 0.0323,0.83493 0.0408,1.2135 0.009,0.3783 0.003,1.0651 -0.0122,1.5262 -0.0153,0.46089 -0.045,1.0858 -0.0658,1.3886 -0.0205,0.30274 -0.0601,0.78111 -0.0873,1.0634 -0.0273,0.28197 -0.0778,0.73233 -0.11209,1.0008 -0.0345,0.26821 -0.0913,0.67928 -0.1266,0.91323 -0.0353,0.23394 -0.11384,0.69858 -0.17464,1.0324 -0.0606,0.33376 -0.15662,0.82368 -0.21342,1.0884 -0.0568,0.2647 -0.17989,0.79087 -0.27397,1.1694 -0.0938,0.3783 -0.24394,0.94127 -0.33351,1.251 -0.0898,0.3095 -0.22944,0.77112 -0.3105,1.0258 -0.0813,0.25445 -0.21267,0.64854 -0.29199,0.8757 -0.0796,0.22693 -0.24044,0.66605 -0.35753,0.97578 -0.11735,0.3095 -0.31826,0.81288 -0.44686,1.1187 -0.12885,0.30574 -0.31425,0.73359 -0.41208,0.95076 -0.0981,0.21717 -0.31175,0.66879 -0.47488,1.0033 -0.16338,0.33451 -0.40608,0.81288 -0.53942,1.0634 -0.1336,0.2502 -0.35778,0.65776 -0.49815,0.90549 -0.14061,0.24769 -0.35103,0.60849 -0.46786,0.8019 -0.1166,0.1934 -0.31125,0.50868 -0.4326,0.70056 -0.1211,0.1919 -0.35553,0.5517 -0.52092,0.79938 -0.16513,0.24769 -0.4411,0.64728 -0.61326,0.88821 -0.17214,0.24069 -0.4306,0.59373 -0.57398,0.78439 -0.14361,0.19065 -0.4386,0.56921 -0.65601,0.84119 -0.21717,0.27171 -0.56295,0.69003 -0.76837,0.92925 -0.20516,0.23944 -0.55269,0.63198 -0.77189,0.87295 -0.21942,0.24069 -0.63927,0.68229 -0.93325,0.98127 -0.29399,0.29899 -0.74435,0.73985 -1.0008,0.97929 -0.25646,0.23944 -0.59571,0.55071 -0.75411,0.69156 -0.15813,0.14086 -0.5184,0.44911 -0.80064,0.68531 -0.28198,0.23619 -0.70983,0.58248 -0.95076,0.76963 -0.24069,0.18715 -0.6165,0.47138 -0.83493,0.63176 -0.21843,0.16062 -0.60674,0.43659 -0.86319,0.61375 -0.25646,0.17689 -0.66303,0.44886 -0.90396,0.60399 -0.24069,0.15512 -0.68553,0.4306 -0.98829,0.61173 -0.30274,0.18115 -0.76838,0.45009 -1.0346,0.59747 -0.26621,0.14736 -0.72207,0.39056 -1.0133,0.54018 -0.29098,0.14987 -0.74484,0.3738 -1.0083,0.49765 -0.26346,0.12385 -0.70155,0.32251 -0.97326,0.4411 -0.27197,0.11885 -0.71505,0.3045 -0.98456,0.41258 -0.26971,0.10834 -0.69304,0.25896 -0.94077,0.33502 -0.24769,0.0763 -0.62473,0.18365 -0.83817,0.23869 -0.21317,0.055 -0.54517,0.13486 -0.73732,0.17714 -0.19241,0.0425 -0.57519,0.11534 -0.85068,0.16188 -0.27572,0.0465 -0.69255,0.10759 -0.92651,0.13536 -0.23393,0.028 -0.57721,0.0628 -0.76311,0.0776 -0.1859,0.0145 -0.59674,0.0333 -0.91323,0.0415 -0.32926,0.009 -0.78862,0.003 -1.0739,-0.0135 -0.27422,-0.0157 -0.65704,-0.0458 -0.85068,-0.067 -0.1939,-0.0213 -0.54918,-0.0718 -0.79011,-0.11234 -0.24069,-0.0405 -0.64053,-0.12385 -0.88821,-0.18515 -0.24769,-0.0616 -0.62298,-0.16863 -0.83416,-0.23794 -0.21092,-0.0695 -0.52619,-0.18415 -0.70056,-0.2547 -0.17414,-0.0703 -0.46314,-0.19766 -0.64202,-0.28248 -0.17889,-0.0851 -0.44911,-0.22518 -0.60048,-0.31175 -0.15137,-0.0863 -0.4666,-0.28473 -0.70056,-0.4406 -0.23393,-0.15612 -0.55768,-0.38956 -0.71932,-0.51917 -0.16163,-0.12935 -0.43084,-0.35828 -0.59796,-0.50841 -0.16714,-0.15036 -0.4346,-0.41432 -0.59423,-0.58698 -0.15962,-0.17239 -0.37955,-0.42008 -0.48888,-0.55044 -0.10933,-0.1301 -0.29924,-0.3718 -0.42184,-0.53694 -0.12285,-0.16513 -0.316,-0.4411 -0.42959,-0.61299 -0.11359,-0.17213 -0.27572,-0.42859 -0.36003,-0.57019 -0.0846,-0.14162 -0.25471,-0.44561 -0.37806,-0.67554 -0.12335,-0.22994 -0.32,-0.62874 -0.4371,-0.88623 -0.11709,-0.25746 -0.29723,-0.68103 -0.40006,-0.94127 -0.10309,-0.2602 -0.27172,-0.72508 -0.3748,-1.0331 -0.10309,-0.308 -0.25096,-0.78512 -0.32827,-1.0603 -0.0776,-0.27522 -0.19015,-0.70308 -0.2502,-0.95076 -0.06,-0.24769 -0.14962,-0.64053 -0.19916,-0.87295 -0.0495,-0.23244 -0.13986,-0.70808 -0.20066,-1.0569 -0.0608,-0.34878 -0.14436,-0.87372 -0.18564,-1.1662 -0.0413,-0.29248 -0.10334,-0.78538 -0.13811,-1.0949 -0.0348,-0.30975 -0.0853,-0.82764 -0.11259,-1.1509 -0.0273,-0.32351 -0.0663,-0.87494 -0.0871,-1.226 -0.0205,-0.35103 -0.0508,-0.98703 -0.0668,-1.4136 -0.0223,-0.5877 -0.0225,-0.941 -7.6e-4,-1.4587 0.0158,-0.3758 0.0455,-0.88794 0.0663,-1.1384 0.0205,-0.25045 0.0546,-0.61299 0.0758,-0.80563 0.021,-0.19266 0.0666,-0.56997 0.10108,-0.83817 0.0348,-0.26847 0.0958,-0.69633 0.13561,-0.95076 0.04,-0.25471 0.12385,-0.74385 0.18665,-1.0871 0.0628,-0.34327 0.17689,-0.91175 0.25345,-1.2635 0.0766,-0.35153 0.21793,-0.9545 0.31426,-1.3398 0.0963,-0.38531 0.2577,-0.9878 0.35878,-1.3386 0.10083,-0.35103 0.2532,-0.8577 0.33827,-1.1259 0.0851,-0.26847 0.24369,-0.73809 0.35228,-1.0441 0.10884,-0.30574 0.27247,-0.7506 0.36355,-0.98829 0.0913,-0.23769 0.2592,-0.65178 0.37305,-0.91998 0.11384,-0.26847 0.29848,-0.68504 0.41007,-0.92574 0.11134,-0.24094 0.22168,-0.45185 0.2447,-0.46913 0.023,-0.0173 0.0661,-0.0313 0.0958,-0.0313 0.0295,0 0.0741,0.0225 0.0991,0.05 l 0.0453,0.05 -0.10333,0.34402 c -0.0566,0.18916 -0.15938,0.56345 -0.22793,0.83192 -0.0688,0.26821 -0.15838,0.63976 -0.19966,0.82566 -0.041,0.18565 -0.1141,0.54594 -0.16213,0.80064 -0.048,0.25445 -0.11585,0.643 -0.15062,0.86319 -0.0348,0.22017 -0.0911,0.60849 -0.12536,0.86319 -0.0343,0.25445 -0.0851,0.68229 -0.11259,0.95076 -0.0278,0.26821 -0.0673,0.70182 -0.0878,0.96327 -0.0205,0.26146 -0.0518,0.70605 -0.0695,0.98829 -0.0213,0.33627 -0.032,1.1031 -0.0315,2.2268 4.9e-4,1.3546 0.01,1.8502 0.044,2.3644 0.0238,0.35778 0.0663,0.8982 0.0941,1.201 0.028,0.30274 0.0841,0.81139 0.1246,1.1307 0.0408,0.319 0.10759,0.7771 0.14887,1.0183 0.0413,0.24095 0.10208,0.56394 0.13536,0.71784 0.033,0.15388 0.0748,0.28849 0.0923,0.29949 0.0175,0.0108 0.13986,0.029 0.27147,0.0405 0.13161,0.0115 0.53217,0.0195 0.88997,0.018 0.49464,-0.002 0.7596,-0.0157 1.1052,-0.0568 0.2502,-0.0295 0.61047,-0.0826 0.80064,-0.11759 0.19041,-0.035 0.4869,-0.0976 0.6588,-0.13936 0.17214,-0.0415 0.47039,-0.1266 0.66303,-0.18865 0.19266,-0.0623 0.49113,-0.16964 0.66303,-0.23869 0.17214,-0.0691 0.49289,-0.21317 0.71307,-0.32051 0.22018,-0.10708 0.52992,-0.26971 0.68805,-0.36154 0.15838,-0.0916 0.43385,-0.26296 0.6125,-0.3808 0.17864,-0.1176 0.41508,-0.28223 0.52542,-0.3658 0.11033,-0.0833 0.30774,-0.23793 0.43835,-0.34352 0.13085,-0.10533 0.38655,-0.32851 0.56844,-0.4959 0.18189,-0.16738 0.46539,-0.45311 0.6295,-0.63527 0.16438,-0.18214 0.37605,-0.42684 0.47012,-0.54369 0.0941,-0.11709 0.2592,-0.33351 0.36679,-0.48114 0.10759,-0.14761 0.29098,-0.42333 0.40783,-0.61299 0.11684,-0.1894 0.30149,-0.52042 0.41033,-0.73557 0.10883,-0.21517 0.25044,-0.51916 0.31475,-0.67554 0.0643,-0.15637 0.14937,-0.3803 0.18915,-0.49716 0.0398,-0.11709 0.10633,-0.32876 0.14787,-0.47038 0.0413,-0.14186 0.10783,-0.41208 0.14736,-0.60048 0.0396,-0.18865 0.0921,-0.48915 0.1166,-0.66803 0.0332,-0.24344 0.0445,-0.49189 0.0445,-0.98829 0,-0.49365 -0.011,-0.74308 -0.0436,-0.97578 -0.024,-0.17214 -0.10434,-0.61672 -0.1789,-0.98829 -0.0743,-0.37154 -0.16338,-0.84442 -0.1979,-1.0508 -0.0343,-0.20641 -0.0853,-0.53869 -0.1136,-0.73809 -0.028,-0.19966 -0.0733,-0.56547 -0.10083,-0.81315 -0.0273,-0.24769 -0.068,-0.67554 -0.0901,-0.95076 -0.0245,-0.30424 -0.0455,-0.94423 -0.0538,-1.6328 -0.009,-0.70934 -0.003,-1.3448 0.0155,-1.7014 0.016,-0.31275 0.0515,-0.81666 0.0788,-1.1194 0.0275,-0.30274 0.0725,-0.73057 0.10008,-0.95076 0.0278,-0.22017 0.0788,-0.58621 0.11359,-0.81315 0.035,-0.22718 0.10183,-0.62122 0.14861,-0.8757 0.047,-0.2547 0.13061,-0.66829 0.1859,-0.91948 0.055,-0.2512 0.15187,-0.66227 0.21467,-0.91323 0.0628,-0.2512 0.18165,-0.69305 0.26422,-0.98204 0.0826,-0.28898 0.2607,-0.8577 0.39581,-1.2635 0.13511,-0.40607 0.34428,-0.99706 0.46463,-1.3136 0.12059,-0.3165 0.33451,-0.84568 0.47538,-1.1759 0.14086,-0.33026 0.34978,-0.80316 0.46413,-1.0508 0.11434,-0.24769 0.35628,-0.74308 0.53743,-1.1009 0.1814,-0.35778 0.45711,-0.88146 0.6125,-1.1634 0.15537,-0.28222 0.41208,-0.7326 0.57046,-1.0008 0.15813,-0.26846 0.40007,-0.66802 0.53744,-0.88821 0.13736,-0.22017 0.47614,-0.74934 0.75285,-1.1759 l 0.50341,-0.77562 v -0.15012 c 0,-0.11534 -0.013,-0.16838 -0.0558,-0.22843 -0.0308,-0.043 -0.0983,-0.0993 -0.15012,-0.1251 -0.0811,-0.0403 -0.15037,-0.0465 -0.49464,-0.0443 -0.22018,10e-4 -0.55796,0.0218 -0.7506,0.0455 -0.19266,0.0235 -0.51917,0.0703 -0.72558,0.10383 -0.20642,0.0335 -0.52718,0.0898 -0.71307,0.12536 -0.1859,0.0353 -0.56295,0.11434 -0.83817,0.17564 -0.27522,0.0613 -0.82692,0.1949 -1.226,0.29673 -0.39907,0.10159 -1.0183,0.26922 -1.3761,0.3723 -0.35779,0.10284 -0.88695,0.26221 -1.1759,0.35404 -0.28898,0.0918 -0.69431,0.22343 -0.90072,0.29298 -0.20642,0.0693 -0.58347,0.19891 -0.83817,0.28798 -0.25445,0.0891 -0.73134,0.26246 -1.0594,0.38531 -0.32826,0.1231 -0.87997,0.33727 -1.226,0.47637 -0.34628,0.13911 -0.86017,0.35178 -1.1424,0.47264 -0.28198,0.12059 -0.75087,0.32676 -1.0414,0.4581 -0.29073,0.1311 -0.81441,0.37504 -1.1634,0.5422 -0.34928,0.16714 -0.85441,0.41734 -1.1229,0.55593 -0.26822,0.13861 -0.70632,0.3698 -0.97326,0.51368 -0.26722,0.14386 -0.71757,0.39381 -1.0008,0.55543 -0.28348,0.16163 -0.70682,0.40983 -0.94077,0.5517 -0.23394,0.14162 -0.59423,0.36429 -0.80064,0.49442 -0.20642,0.13035 -0.66402,0.43134 -1.0168,0.66879 -0.35278,0.23769 -0.83142,0.57019 -1.0634,0.73908 -0.23194,0.16888 -0.61326,0.45436 -0.84717,0.6345 -0.23394,0.18014 -0.58298,0.45612 -0.77562,0.61348 -0.19266,0.15713 -0.50189,0.41609 -0.68706,0.57546 -0.1854,0.15913 -0.54018,0.47664 -0.78813,0.70556 -0.2482,0.22893 -0.69957,0.66802 -1.003,0.97578 -0.3035,0.30774 -0.6723,0.69781 -0.81968,0.86643 -0.14712,0.16863 -0.40007,0.47263 -0.56196,0.67554 -0.16188,0.20291 -0.39081,0.50391 -0.5089,0.66901 -0.1181,0.16513 -0.29349,0.41834 -0.38956,0.56295 -0.0963,0.14437 -0.27047,0.42034 -0.38731,0.61299 -0.1166,0.19266 -0.309,0.53042 -0.42759,0.7506 -0.11835,0.22018 -0.29624,0.5747 -0.39507,0.78813 -0.0991,0.21317 -0.25045,0.56219 -0.33652,0.77562 -0.0861,0.21317 -0.20866,0.5387 -0.27271,0.72284 -0.0641,0.18439 -0.16188,0.48712 -0.21768,0.67302 -0.0555,0.1859 -0.14462,0.51916 -0.19816,0.74083 -0.0535,0.22143 -0.13135,0.58298 -0.17289,0.80316 -0.0415,0.22018 -0.0983,0.56921 -0.1261,0.77562 -0.028,0.20642 -0.0628,0.49338 -0.0776,0.63801 -0.0148,0.14437 -0.033,0.62375 -0.0408,1.0648 -0.009,0.50215 -0.004,0.95575 0.0145,1.2135 0.016,0.22618 0.0463,0.56322 0.0673,0.74911 0.0213,0.18565 0.0711,0.52916 0.11084,0.76311 0.04,0.23394 0.11259,0.59873 0.16163,0.81041 0.0491,0.21192 0.13361,0.53842 0.18765,0.72558 0.0543,0.1874 0.15062,0.49239 0.21418,0.67828 0.0638,0.18565 0.18389,0.50666 0.26721,0.71307 0.0831,0.20642 0.24995,0.57798 0.3708,0.82566 0.12084,0.2477 0.30074,0.59099 0.40007,0.76311 0.0993,0.17189 0.2492,0.41959 0.33326,0.55044 0.0841,0.13061 0.23594,0.35579 0.33777,0.5004 0.10183,0.14437 0.316,0.42584 0.47615,0.62501 0.16012,0.19941 0.4819,0.55768 0.71532,0.79641 0.23343,0.23869 0.55417,0.54495 0.71307,0.68053 0.15887,0.13536 0.40131,0.33277 0.53892,0.4386 0.13761,0.10609 0.39106,0.28573 0.56295,0.39957 0.17213,0.11384 0.44235,0.27922 0.60048,0.36754 l 0.28773,0.16063 0.0298,0.87422 c 0.0165,0.48087 0.0478,1.1724 0.0698,1.5372 0.0218,0.36454 0.0623,0.93326 0.0898,1.2635 0.0275,0.33027 0.0838,0.90446 0.1251,1.276 0.041,0.37155 0.10884,0.91746 0.15012,1.2135 0.0415,0.29574 0.12085,0.80816 0.17639,1.1384 0.0555,0.33027 0.14011,0.7974 0.1879,1.0383 0.0475,0.24069 0.14812,0.70934 0.22343,1.0414 0.0753,0.33176 0.19891,0.8329 0.27497,1.1134 0.0761,0.28047 0.21217,0.75186 0.30274,1.0478 0.0906,0.29574 0.24895,0.77436 0.35203,1.0634 0.10309,0.28898 0.25496,0.69431 0.33728,0.90072 0.0823,0.20642 0.23468,0.56669 0.33826,0.80064 0.10359,0.23394 0.29549,0.63927 0.4261,0.90072 0.13085,0.26146 0.32275,0.62748 0.42634,0.81315 0.10383,0.18565 0.26746,0.4671 0.36378,0.6255 0.0963,0.15838 0.28748,0.45662 0.42459,0.66303 0.13711,0.20642 0.37605,0.54419 0.53091,0.7506 0.15487,0.20642 0.38456,0.49842 0.51017,0.64877 0.1256,0.15062 0.35929,0.41833 0.51889,0.59499 0.15988,0.17663 0.44386,0.46912 0.63126,0.64953 0.1874,0.18039 0.47988,0.44735 0.64976,0.59323 0.16988,0.14587 0.42884,0.35879 0.57546,0.4734 0.14662,0.11434 0.4411,0.32451 0.65425,0.46661 0.21342,0.14211 0.54545,0.35078 0.73809,0.46386 0.19266,0.11284 0.60926,0.33276 0.92574,0.48865 0.31651,0.15588 0.78939,0.36755 1.0508,0.47061 0.26146,0.10283 0.65003,0.24395 0.86319,0.31375 0.21342,0.0698 0.55121,0.17189 0.7506,0.22693 0.19966,0.055 0.51489,0.13386 0.70056,0.17489 0.1859,0.041 0.49289,0.10334 0.68256,0.13811 0.18966,0.035 0.54995,0.0911 0.80064,0.12485 0.2507,0.034 0.67554,0.0788 0.94374,0.0998 0.26847,0.021 0.74687,0.0453 1.0634,0.054 0.32426,0.009 0.84294,0.004 1.1884,-0.0122 0.33727,-0.0155 0.80438,-0.0455 1.0383,-0.0668 0.23394,-0.021 0.63351,-0.0663 0.88821,-0.10033 0.25471,-0.0343 0.59796,-0.0846 0.76311,-0.11184 0.16513,-0.0275 0.49739,-0.0903 0.73809,-0.13961 0.24095,-0.0493 0.64053,-0.13961 0.88821,-0.20091 0.2477,-0.0611 0.608,-0.15663 0.80064,-0.21217 0.19266,-0.0558 0.48537,-0.14637 0.65052,-0.20166 0.16513,-0.0553 0.55368,-0.20167 0.86319,-0.32526 0.30975,-0.12335 0.78813,-0.32051 1.0634,-0.4381 0.27522,-0.11735 0.73134,-0.32051 1.0133,-0.45135 0.28223,-0.13086 0.77189,-0.3673 1.0884,-0.52542 0.31651,-0.15813 0.78363,-0.40058 1.0383,-0.5387 0.25471,-0.13786 0.65426,-0.36029 0.88821,-0.49414 0.23394,-0.13386 0.58298,-0.33853 0.77562,-0.45486 0.19266,-0.11635 0.54167,-0.33327 0.77562,-0.48213 0.23394,-0.14887 0.60674,-0.39257 0.82841,-0.54144 0.22142,-0.14887 0.64854,-0.44636 0.94878,-0.66105 0.30049,-0.21443 0.75861,-0.55346 1.0181,-0.75335 0.25971,-0.19966 0.66028,-0.51592 0.89019,-0.70254 0.22968,-0.18665 0.56997,-0.46935 0.75559,-0.62851 0.1859,-0.15888 0.55746,-0.48591 0.82566,-0.72684 0.26847,-0.2407 0.91071,-0.86045 1.4276,-1.3774 0.51714,-0.51665 1.1477,-1.1707 1.4011,-1.4534 0.2537,-0.28273 0.62298,-0.70506 0.82066,-0.93825 0.19766,-0.23344 0.53069,-0.63828 0.74034,-0.89973 0.20942,-0.26146 0.54968,-0.70056 0.75587,-0.97578 0.20616,-0.27522 0.51066,-0.69179 0.67653,-0.92574 0.16588,-0.23394 0.49842,-0.72383 0.73858,-1.0884 0.24045,-0.3648 0.56169,-0.8667 0.71406,-1.1159 0.15237,-0.24895 0.40658,-0.67806 0.56471,-0.95351 0.15812,-0.27522 0.40307,-0.71307 0.54391,-0.97326 0.14087,-0.25996 0.43761,-0.83866 0.6593,-1.2858 0.22168,-0.44736 0.52366,-1.0849 0.67104,-1.4169 0.14737,-0.33202 0.36404,-0.83691 0.48141,-1.1222 0.11734,-0.28523 0.3215,-0.80712 0.45387,-1.1602 0.13236,-0.35303 0.33001,-0.90648 0.4391,-1.2297 0.10909,-0.32351 0.28873,-0.88623 0.39907,-1.2507 0.11034,-0.36455 0.27747,-0.95 0.37105,-1.301 0.0938,-0.35104 0.23293,-0.90846 0.30949,-1.2388 0.0763,-0.33027 0.18965,-0.85392 0.2517,-1.1634 0.0621,-0.30975 0.15287,-0.79389 0.20142,-1.0759 0.0485,-0.28223 0.1276,-0.7889 0.17564,-1.1259 0.0478,-0.33727 0.11509,-0.86067 0.14962,-1.1634 0.0343,-0.30275 0.0796,-0.74759 0.10058,-0.98829 0.021,-0.24095 0.0558,-0.70808 0.0771,-1.0383 0.021,-0.33027 0.0483,-1.0161 0.06,-1.524 0.012,-0.52065 0.012,-1.3173 -2.6e-4,-1.8265 -0.012,-0.49667 -0.0393,-1.1732 -0.0605,-1.5034 -0.0215,-0.33027 -0.0611,-0.84816 -0.0883,-1.1509 -0.0273,-0.30275 -0.0783,-0.79263 -0.11358,-1.0884 -0.035,-0.29599 -0.0913,-0.72932 -0.1251,-0.96327 -0.0338,-0.23394 -0.0956,-0.62249 -0.13737,-0.86319 -0.0418,-0.24095 -0.12134,-0.66879 -0.17689,-0.95076 -0.0555,-0.28223 -0.15712,-0.76059 -0.22542,-1.0634 -0.0683,-0.30275 -0.16939,-0.73058 -0.22469,-0.95076 -0.0553,-0.22018 -0.16263,-0.6255 -0.23894,-0.90072 -0.0761,-0.27522 -0.22067,-0.77063 -0.32176,-1.1009 -0.10083,-0.33027 -0.2642,-0.83691 -0.36279,-1.1259 -0.0988,-0.28899 -0.26996,-0.76761 -0.3803,-1.0634 -0.11033,-0.29574 -0.28273,-0.74061 -0.38305,-0.98829 -0.10008,-0.2477 -0.2497,-0.608 -0.33202,-0.80064 -0.0823,-0.19266 -0.23093,-0.53042 -0.33001,-0.7506 -0.0991,-0.22018 -0.35829,-0.76059 -0.57596,-1.201 -0.21743,-0.44036 -0.49315,-0.98078 -0.61272,-1.201 -0.11934,-0.22018 -0.3195,-0.58046 -0.4446,-0.80064 -0.12535,-0.22018 -0.3728,-0.64076 -0.54995,-0.93474 -0.17714,-0.29374 -0.47961,-0.77711 -0.67203,-1.0744 -0.19265,-0.29699 -0.51993,-0.78264 -0.72756,-1.0794 -0.20741,-0.29674 -0.55593,-0.77836 -0.77413,-1.0706 -0.21843,-0.29199 -0.57497,-0.75362 -0.79263,-1.0258 -0.21743,-0.27197 -0.52416,-0.64679 -0.68157,-0.83241 -0.15713,-0.1859 -0.42559,-0.49541 -0.59621,-0.68805 -0.17064,-0.19266 -0.5044,-0.55868 -0.7416,-0.81315 -0.23744,-0.25471 -0.74533,-0.77288 -1.1286,-1.1517 -0.38331,-0.3788 -0.89397,-0.86796 -1.1349,-1.0869 -0.24069,-0.21893 -0.62924,-0.56219 -0.86319,-0.76284 -0.23394,-0.20066 -0.61376,-0.51867 -0.84393,-0.70682 -0.23019,-0.18815 -0.62973,-0.5044 -0.88821,-0.70308 -0.25821,-0.19866 -0.7173,-0.53919 -1.0201,-0.75636 -0.30275,-0.21717 -0.8492,-0.59373 -1.2145,-0.83641 -0.3653,-0.2427 -0.89996,-0.58599 -1.1884,-0.76311 -0.28848,-0.17715 -0.74385,-0.44786 -1.0123,-0.60147 -0.26822,-0.15363 -0.70731,-0.39807 -0.97578,-0.5432 -0.26822,-0.14486 -0.73886,-0.38906 -1.0456,-0.54243 -0.30675,-0.15337 -0.72882,-0.35854 -0.93825,-0.45585 -0.20917,-0.0973 -0.57744,-0.26471 -0.81841,-0.3718 -0.24069,-0.10708 -0.63275,-0.27497 -0.87071,-0.37305 -0.23819,-0.0981 -0.64926,-0.26196 -0.91323,-0.36379 -0.26421,-0.10158 -0.73359,-0.27472 -1.0433,-0.38431 -0.3095,-0.10983 -0.77688,-0.26771 -1.0383,-0.35103 -0.26146,-0.0833 -0.62726,-0.1969 -0.81315,-0.2522 -0.1859,-0.0555 -0.54045,-0.15687 -0.78813,-0.22518 -0.2477,-0.0683 -0.65304,-0.17514 -0.90072,-0.23719 -0.2477,-0.062 -0.70358,-0.16889 -1.0133,-0.23744 -0.3095,-0.0688 -0.77085,-0.16563 -1.0248,-0.21542 -0.2542,-0.0498 -0.72707,-0.13461 -1.0508,-0.18815 -0.32401,-0.0535 -0.75209,-0.12035 -0.95175,-0.14862 -0.19941,-0.0283 -0.59346,-0.0788 -0.8757,-0.11259 -0.28198,-0.0338 -0.69305,-0.0786 -0.91323,-0.0993 -0.22018,-0.021 -0.64224,-0.055 -0.93825,-0.0761 -0.29574,-0.0208 -0.77985,-0.0493 -1.0759,-0.0633 -0.29574,-0.014 -1.1064,-0.0238 -1.8014,-0.0218 z"
       id="icon" /></g></svg>